<?xml version="1.0" encoding="utf-8"?>
<!-- Generator: Adobe Illustrator 27.1.0, SVG Export Plug-In . SVG Version: 6.00 Build 0)  -->
<svg version="1.1" id="Layer_1" xmlns="http://www.w3.org/2000/svg" xmlns:xlink="http://www.w3.org/1999/xlink" x="0px" y="0px"
	 viewBox="0 0 1080 1080" style="enable-background:new 0 0 1080 1080;" xml:space="preserve">
<style type="text/css">
	.st0{fill:none;}
	.st1{fill:#8C6239;}
	.st2{fill:#A67C52;}
	.st3{fill:#603813;}
	.st4{fill:#FFFFFF;}
</style>
<g>
	<path class="st0" d="M800.58,364.56c1.19,0.98,2.3,1.99,3.45,2.99C802.88,366.56,801.77,365.55,800.58,364.56z"/>
	<path class="st0" d="M842.61,410.52c1.65,2.44,3.22,4.87,4.69,7.28C845.83,415.39,844.26,412.96,842.61,410.52z"/>
	<path class="st0" d="M837.28,403.03c1.67,2.24,3.28,4.48,4.8,6.71C840.55,407.5,838.95,405.27,837.28,403.03z"/>
	<path class="st0" d="M486.39,674.53c0.17,0.02,0.35,0.04,0.52,0.06C486.74,674.57,486.56,674.55,486.39,674.53z"/>
	<path class="st0" d="M817.32,379.9c1.56,1.58,3.06,3.17,4.55,4.76C820.38,383.07,818.89,381.48,817.32,379.9z"/>
	<path class="st0" d="M809.3,372.18c1.44,1.32,2.81,2.66,4.2,4C812.11,374.84,810.75,373.5,809.3,372.18z"/>
	<path class="st0" d="M824.65,387.66c1.63,1.81,3.2,3.63,4.74,5.45C827.85,391.28,826.29,389.47,824.65,387.66z"/>
	<path class="st0" d="M475.15,673.39c0.53,0.05,1.09,0.09,1.6,0.14C476.23,673.48,475.68,673.44,475.15,673.39z"/>
	<path class="st0" d="M481.01,673.95c0.33,0.03,0.68,0.06,1,0.1C481.69,674.01,481.34,673.98,481.01,673.95z"/>
	<path class="st0" d="M658.67,667.61c-0.15-0.22-0.25-0.45-0.28-0.69C658.43,667.16,658.52,667.39,658.67,667.61z"/>
	<path class="st0" d="M659.26,668.19c0.02,0.02,0.03,0.03,0.05,0.05C659.29,668.22,659.28,668.2,659.26,668.19z"/>
	<path class="st0" d="M467.37,672.74c1.27,0.1,2.56,0.2,3.79,0.3C469.94,672.94,468.65,672.84,467.37,672.74z"/>
	<path class="st0" d="M831.3,395.39c1.66,2.03,3.27,4.06,4.81,6.1C834.57,399.45,832.97,397.42,831.3,395.39z"/>
	<path class="st0" d="M52.07,681.4c1.23-1.67,2.47-3.31,3.74-4.91C54.55,678.09,53.3,679.73,52.07,681.4z"/>
	<path class="st0" d="M1030.44,676.34c-3.74-8.7-7.05-17.36-11.25-25.32c0.68,1.28,1.3,2.61,1.94,3.93
		C1024.44,661.81,1027.3,669.05,1030.44,676.34z"/>
	<path class="st0" d="M51.77,681.83c-4.71,6.46-9.06,13.46-12.78,21c0.86-1.75,1.76-3.46,2.69-5.15
		C44.75,692.08,48.15,686.8,51.77,681.83z"/>
	<path class="st0" d="M36.53,708.1c0.76-1.73,1.56-3.44,2.39-5.11C38.09,704.67,37.29,706.37,36.53,708.1z"/>
	<path class="st0" d="M34.26,713.61c0.53-1.39,1.1-2.74,1.68-4.09C35.37,710.87,34.79,712.22,34.26,713.61z"/>
	<path class="st0" d="M207.02,477.16c1.55-2.85,3.2-5.71,4.95-8.56C210.22,471.45,208.57,474.31,207.02,477.16z"/>
	<path class="st0" d="M224.49,450.5c-2.1,2.71-4.09,5.44-6.01,8.18C220.39,455.94,222.39,453.21,224.49,450.5
		C224.49,450.5,224.49,450.5,224.49,450.5z"/>
	<path class="st0" d="M668.1,670.41c-0.09-0.01-0.17-0.02-0.26-0.03C667.93,670.39,668.01,670.4,668.1,670.41z"/>
	<path class="st0" d="M212.45,467.83c1.74-2.81,3.57-5.61,5.5-8.41C216.01,462.21,214.19,465.02,212.45,467.83z"/>
	<path class="st0" d="M202.32,486.43c1.37-2.92,2.86-5.87,4.46-8.82C205.18,480.56,203.69,483.5,202.32,486.43z"/>
	<path class="st0" d="M665.58,670.1c-0.01,0-0.02,0-0.03-0.01C665.56,670.1,665.57,670.1,665.58,670.1z"/>
	<path class="st0" d="M458.98,672.13c2.14,0.14,4.22,0.29,6.26,0.44C463.21,672.42,461.12,672.27,458.98,672.13z"/>
	<path class="st0" d="M398.36,230.44c0.75-2.83,1.55-5.62,2.43-8.37C399.91,224.82,399.12,227.62,398.36,230.44z"/>
	<path class="st0" d="M397.38,234.26c0.02,0,0.04,0,0.05,0.01c0.24-0.99,0.46-2,0.71-2.98
		C397.89,232.27,397.63,233.26,397.38,234.26z"/>
	<polygon class="st0" points="661.66,669.28 661.67,669.29 661.66,669.28 	"/>
	<path class="st0" d="M495.53,675.71c0.03,0,0.06,0.01,0.09,0.01C495.59,675.72,495.56,675.71,495.53,675.71z"/>
	<g>
		<path class="st1" d="M568.03,838.01c-156.33,23.79-319.45,6.8-458.78-71.37c-28.37-16.21-50.81-40.49-67.57-68.96
			c-0.93,1.69-1.82,3.41-2.69,5.15c-0.03,0.05-0.05,0.1-0.07,0.16c-0.83,1.68-1.62,3.38-2.39,5.11c-0.2,0.46-0.39,0.94-0.58,1.41
			c-0.57,1.35-1.15,2.71-1.68,4.09c-0.73,1.91-1.42,3.84-2.05,5.81c-5.39,16.37-7.4,34.62-5.02,53.55c0.12,2.38,0.74,4.72,1.16,7.1
			c0.47,2.37,0.88,4.76,1.39,7.15c0.67,2.36,1.34,4.73,2.01,7.12c0.64,2.39,1.32,4.79,2.27,7.13c0.87,2.36,1.75,4.73,2.63,7.11
			c0.87,2.38,2.09,4.66,3.12,7.02c1.99,4.75,4.62,9.28,7.15,13.9c1.19,2.35,2.74,4.53,4.16,6.78c1.47,2.23,2.83,4.54,4.4,6.73
			c3.29,4.28,6.28,8.84,9.99,12.93c6.88,8.59,15.08,16.32,23.57,23.87c8.79,7.28,18.06,13.98,28.37,20.04
			c10.3,5.94,21.04,11.56,32.47,16.27c22.75,9.63,47.51,16.73,73.47,22.21c25.99,5.46,53.2,9.32,81.28,12.8
			c28.1,3.52,56.81,6.74,86.05,9.43c58.48,5.37,119.16,8.64,181.13,7.32c61.96-1.31,122.22-7.3,179.25-18.81
			c57.02-11.47,110.83-28.16,159.61-49.63c24.37-10.77,47.47-22.69,69.18-35.51c5.37-3.3,10.84-6.36,16.02-9.78
			c5.2-3.4,10.36-6.77,15.47-10.11c10.07-6.8,19.23-13.62,25.98-21.36c6.82-7.74,10.66-16.03,12.38-26.03
			c1.71-9.88,1.61-20.66,0.66-31.46c-1.26-21.56-5.34-42.07-10.77-61.17c-2.46-9.65-6.03-18.7-9.14-27.65
			c-3.14-7.3-6-14.54-9.31-21.39C888.58,748.47,731.1,810.01,568.03,838.01z"/>
	</g>
	<g>
		<path class="st2" d="M172.84,586.53c-2.03,2.66-6.07,5.74-11.36,8.78c-10.34,6.25-25.89,14.94-44.75,27.56
			c-9.43,6.29-19.59,13.71-30.09,22.41c-10.48,8.71-21.14,18.97-30.82,31.2c-1.27,1.6-2.52,3.24-3.74,4.91
			c-0.1,0.14-0.2,0.29-0.31,0.43c-3.61,4.97-7.02,10.25-10.09,15.85c16.77,28.48,39.21,52.75,67.57,68.96
			c139.33,78.16,302.46,95.16,458.78,71.37c163.07-28,320.55-89.54,453.09-183.05c-0.64-1.32-1.26-2.65-1.94-3.93
			c-2.07-3.99-3.77-8.11-6.05-11.85c-2.16-3.8-4.29-7.55-6.39-11.24c-2-3.76-4.51-7.11-6.68-10.61c-2.29-3.41-4.32-6.94-6.72-10.11
			c-18.42-26.01-37.87-45.8-54.96-60.51c-2.15-1.83-4.25-3.6-6.28-5.33c-1.02-0.87-2.02-1.72-3-2.56c-1.03-0.78-2.05-1.54-3.05-2.29
			c-4.01-3.02-7.76-5.85-11.24-8.48c-7.23-4.93-13.35-9.11-18.3-12.49c-2.13-1.35-4-2.65-5.68-3.91c-0.48,1.84-1.05,3.83-1.73,6
			c-0.78,2.27-1.8,4.64-2.87,7.22c-2.23,5.11-4.65,11.07-8.24,17.12c-1.75,3.07-3.59,6.28-5.5,9.62c-1.97,3.32-4.34,6.54-6.67,9.99
			c-4.56,6.98-10.27,13.78-16.25,21.01c-12.38,14.03-27.44,28.3-44.93,41.1c-17.62,12.62-35.87,22.48-53.07,29.87
			c-8.73,3.42-16.97,6.73-25.03,8.88c-4,1.13-7.8,2.39-11.57,3.22c-3.77,0.77-7.39,1.52-10.85,2.23
			c-6.86,1.53-13.28,1.97-18.83,2.49c-2.79,0.21-5.36,0.45-7.76,0.48c-2.41-0.04-4.61-0.12-6.59-0.24
			c-1.01-0.06-1.95-0.14-2.85-0.23c-0.09-0.01-0.17-0.02-0.26-0.03c-0.8-0.08-1.56-0.17-2.26-0.27c-0.01,0-0.02,0-0.03-0.01
			c-1.54-0.22-2.83-0.5-3.88-0.81c0,0,0,0,0,0c-47.31,12.32-97.64,12.63-147.16,12.47c0,0.02,0.03,0.05,0.03,0.07
			c0.03,3.97-21.13,7.75-55.37,10.65c-17.12,1.4-37.47,2.84-60.48,3.24c-22.97,0.34-48.66-0.37-75.62-4.98
			c-13.46-2.31-26.54-5.52-38.92-9.66c-12.47-4.16-24.09-9.34-34.62-15.27c-10.54-5.9-20-12.5-28.28-19.37
			c-8.32-6.84-15.22-14.23-21.06-21.25c-11.52-14.32-17.86-27.97-20.65-37.69c-0.85-2.73-1.36-5.14-1.68-7.25
			c-1.35,1.54-2.54,1.99-2.99,1.65C175.24,582.12,174.91,583.88,172.84,586.53z"/>
	</g>
	<g>
		<path class="st2" d="M231.41,512.28c-4.64-20.58-6.97-41.18-6.93-61.77c-2.1,2.71-4.1,5.44-6.01,8.17
			c-0.17,0.25-0.35,0.49-0.52,0.74c-1.94,2.8-3.77,5.6-5.5,8.41c-0.16,0.26-0.32,0.51-0.48,0.77c-1.75,2.86-3.4,5.71-4.95,8.56
			c-0.08,0.15-0.16,0.3-0.25,0.46c-1.59,2.95-3.08,5.89-4.46,8.82c0,0,0,0,0,0C210.63,495.98,220.53,504.57,231.41,512.28z"/>
	</g>
	<g>
		<path class="st2" d="M523.14,90.52c-3.33-0.52-8.63,1.42-15.63,5.38c-1.74,0.97-3.57,2.07-5.6,3.28c-2,1.2-4.1,2.46-6.3,3.77
			c-4.31,2.47-8.78,5.53-13.56,8.75c-9.46,6.61-19.64,14.94-29.76,25.21c-10.08,10.29-20.05,22.58-29.04,36.81
			c-4.43,7.15-8.72,14.72-12.44,22.83c-3.88,8.04-7.13,16.63-10.03,25.53c-0.87,2.75-1.68,5.54-2.43,8.37
			c-0.07,0.28-0.14,0.56-0.22,0.84c-0.26,0.98-0.47,1.99-0.71,2.98c24.68,2.36,48.84,12.25,69.91,29.54
			c22.83,18.73,39.9,41.89,52.8,68.29c1.44,2.94,3.04,5.8,5.37,10.2c2.79-5.01,5.1-8.8,7.08-12.75c13.82-27.6,32.81-50.5,59.7-66.36
			c0.82-0.49,1.67-0.89,2.5-1.35c-3.41-1.88-6.8-3.78-10.09-5.79c-16.08-9.73-30.44-21.22-42.04-33.88
			c-2.78-3.33-5.6-6.32-8.13-9.79c-2.59-3.37-4.87-6.84-6.97-10.31c-4.18-6.95-7.45-14-9.95-20.91
			c-4.98-13.85-6.95-27.15-6.84-38.74c0.02-2.9,0.16-5.7,0.42-8.38c0.15-1.34,0.29-2.65,0.43-3.93c0.1-0.74,0.29-1.74,0.45-2.56
			c0.2-0.7,0.4-1.39,0.6-2.08c1.69-5.04,3.54-8.74,5.18-12.24c3.32-6.86,6.03-11.95,7.73-15.35c0.83-1.6,1.47-2.85,1.95-3.78
			c0.44-0.76,0.75-1.34,1.22-1.57C527.98,93.28,526.81,91.14,523.14,90.52z"/>
	</g>
	<g>
		<path class="st2" d="M534.99,547.3c-0.78-1.36-1.72-2.62-2.69-4.09c-3.46,6.89-6.7,13.78-10,20.58
			c7.17-0.69,14.33-1.53,21.48-2.45C540.68,556.79,537.74,552.11,534.99,547.3z"/>
	</g>
	<g>
		<path class="st2" d="M847.31,417.81C847.31,417.81,847.31,417.81,847.31,417.81c-1.48-2.42-3.05-4.85-4.7-7.29
			c-0.18-0.26-0.35-0.53-0.53-0.79c-1.52-2.23-3.13-4.47-4.8-6.71c-0.38-0.52-0.77-1.03-1.17-1.55c-1.54-2.03-3.15-4.07-4.81-6.1
			c-0.63-0.76-1.27-1.52-1.91-2.28c-1.53-1.82-3.1-3.64-4.74-5.45c-0.9-1-1.85-2-2.78-3c-1.49-1.59-2.99-3.18-4.55-4.76
			c-1.24-1.25-2.54-2.48-3.82-3.72c-1.39-1.34-2.76-2.68-4.2-4c-1.7-1.56-3.49-3.09-5.27-4.62c-1.15-1-2.26-2.01-3.45-2.99
			c-3.04-2.52-6.17-5.01-9.41-7.44c-7.48-5.64-15.53-11-24-16.15c6.22,14.59,10.8,30.09,13.95,46.33
			c5.78,29.77,6.69,59.02,2.18,87.45C807,458.15,828.58,439.24,847.31,417.81z"/>
	</g>
	<g>
		<path class="st1" d="M659.31,668.24c-0.02-0.02-0.03-0.03-0.05-0.05c-0.24-0.18-0.45-0.37-0.59-0.57
			c-0.15-0.22-0.25-0.45-0.28-0.69c-0.24-1.97,3.67-4.5,10.73-7.34c1.77-0.71,3.73-1.44,5.88-2.18c2.13-0.84,4.44-1.75,6.91-2.73
			c4.93-1.95,10.62-3.69,16.67-6.34c3.05-1.2,6.25-2.47,9.57-3.78c3.32-1.3,6.66-2.98,10.18-4.49c7.09-2.9,14.32-6.76,22.03-10.51
			c15.16-8.05,31.34-17.66,47.4-29.15c15.92-11.68,30.1-24.05,42.48-35.95c5.96-6.16,11.89-11.82,16.85-17.66
			c2.53-2.87,5.17-5.52,7.44-8.27c2.28-2.75,4.48-5.39,6.57-7.91c4.41-4.93,7.83-9.79,11.22-13.87c1.7-2.04,3.28-3.95,4.74-5.71
			c1.38-1.81,2.68-3.45,3.91-4.91c0.78-0.93,1.52-1.76,2.24-2.54c-0.32-0.71-0.36-1.19-0.19-1.32c-0.7,0.6-3.03-0.34-5.81-3.91
			c-2.79-3.53-5.29-9.85-6.81-17.56c-1.5-7.77-3.11-16.12-6.12-25.93c-3.04-9.7-7.49-20.39-13.68-31.51
			c-1.03-1.84-2.19-3.7-3.32-5.55c-18.73,21.43-40.31,40.34-64,56.94c-4.15,26.19-12.89,51.69-26.83,76.25
			c-19.28,33.97-46.26,59.8-85.45,69.39c-37.98,9.29-70.74-2.56-99.51-27.43c-10.75-9.29-19.84-19.98-27.75-31.61
			c-7.15,0.92-14.31,1.75-21.48,2.45c-3.73,7.67-7.52,15.22-11.79,22.49c-21.35,36.33-50.24,64.43-91.61,76.65
			c-37.17,10.98-72.13,3.93-103.98-17.38c-39.16-26.2-62.61-64.05-76.69-108.1c-2.68-8.38-4.92-16.78-6.81-25.17
			c-10.88-7.71-20.79-16.29-29.1-25.85c-0.55,1.17-1.1,2.34-1.61,3.5c-11.67,26.28-15.46,49.9-16.91,66.23
			c-0.49,4.04-0.62,7.9-1.15,11.38c-0.26,1.81-0.61,3.5-1.03,5.03c5,4.64,14.1,21.02,33.43,38.72c6.03,5.3,12.74,10.93,20.61,16.13
			c7.83,5.22,16.54,10.28,26.09,14.85c9.54,4.59,19.94,8.64,30.96,11.94c11.11,3.34,22.92,6.05,35.23,8.16
			c24.62,4.22,48.87,5.74,71.17,6.83c22.29,1.05,42.75,1.72,59.89,2.92c2.14,0.14,4.22,0.29,6.26,0.44
			c0.73,0.05,1.42,0.11,2.13,0.17c1.27,0.1,2.56,0.2,3.79,0.3c1.37,0.11,2.67,0.23,3.98,0.35c0.53,0.05,1.09,0.09,1.6,0.14
			c1.47,0.14,2.87,0.28,4.26,0.42c0.33,0.03,0.68,0.06,1,0.1c1.51,0.16,2.96,0.32,4.38,0.48c0.17,0.02,0.35,0.04,0.52,0.06
			c3.12,0.36,5.99,0.74,8.62,1.13c0.03,0,0.06,0.01,0.09,0.01c11.96,1.77,18.71,3.81,18.88,6.03c49.52,0.17,99.85-0.14,147.16-12.47
			c0,0,0,0,0,0C660.65,668.98,659.86,668.63,659.31,668.24z"/>
	</g>
	<g>
		<polygon class="st2" points="883.04,502.28 883.04,502.28 883.04,502.28 		"/>
	</g>
	<g>
		<path class="st3" d="M177.84,580.24c0.31,2.11,0.82,4.52,1.68,7.25c2.8,9.73,9.14,23.37,20.65,37.69
			c5.85,7.02,12.75,14.41,21.06,21.25c8.28,6.87,17.75,13.46,28.28,19.37c10.53,5.92,22.15,11.1,34.62,15.27
			c12.38,4.15,25.46,7.35,38.92,9.66c26.96,4.61,52.65,5.33,75.62,4.98c23.01-0.4,43.37-1.84,60.48-3.24
			c34.24-2.9,55.41-6.68,55.37-10.65c0-0.02-0.02-0.05-0.03-0.07c-0.17-2.22-6.92-4.26-18.88-6.03c-0.03,0-0.06-0.01-0.09-0.01
			c-2.63-0.39-5.51-0.76-8.62-1.13c-0.17-0.02-0.35-0.04-0.52-0.06c-1.42-0.16-2.87-0.32-4.38-0.48c-0.32-0.03-0.67-0.06-1-0.1
			c-1.39-0.14-2.79-0.28-4.26-0.42c-0.52-0.05-1.08-0.09-1.6-0.14c-1.31-0.12-2.62-0.24-3.98-0.35c-1.23-0.1-2.52-0.2-3.79-0.3
			c-0.72-0.06-1.4-0.11-2.13-0.17c-2.03-0.15-4.12-0.3-6.26-0.44c-17.15-1.2-37.6-1.88-59.89-2.92c-22.3-1.09-46.55-2.61-71.17-6.83
			c-12.3-2.11-24.12-4.83-35.23-8.16c-11.03-3.3-21.42-7.35-30.96-11.94c-9.55-4.57-18.26-9.63-26.09-14.85
			c-7.86-5.2-14.58-10.82-20.61-16.13c-19.33-17.7-28.43-34.08-33.43-38.72c0.42-1.53,0.77-3.22,1.03-5.03
			c0.53-3.48,0.67-7.34,1.15-11.38c1.46-16.33,5.24-39.95,16.91-66.23c0.51-1.16,1.07-2.33,1.61-3.5c0,0,0,0,0,0
			c1.37-2.92,2.86-5.87,4.46-8.82c0.08-0.15,0.16-0.3,0.25-0.46c1.55-2.85,3.2-5.71,4.95-8.56c0.16-0.26,0.32-0.51,0.48-0.77
			c1.74-2.81,3.57-5.61,5.5-8.41c0.17-0.25,0.35-0.49,0.52-0.74c1.91-2.74,3.91-5.47,6.01-8.18c0,0,0,0.01,0,0.01
			c-0.04,20.59,2.29,41.2,6.93,61.77c1.89,8.4,4.13,16.79,6.81,25.17c14.08,44.05,37.53,81.9,76.69,108.1
			c31.85,21.31,66.81,28.36,103.98,17.38c41.37-12.22,70.26-40.32,91.61-76.65c4.27-7.27,8.07-14.82,11.79-22.49
			c3.3-6.8,6.55-13.69,10-20.58c0.97,1.47,1.91,2.73,2.69,4.09c2.76,4.82,5.69,9.5,8.79,14.05c7.91,11.63,17,22.32,27.75,31.61
			c28.77,24.87,61.52,36.72,99.51,27.43c39.19-9.59,66.17-35.42,85.45-69.39c13.94-24.55,22.68-50.05,26.83-76.25
			c4.51-28.43,3.6-57.68-2.18-87.45c-3.15-16.24-7.72-31.73-13.95-46.33c8.46,5.15,16.52,10.5,24,16.15
			c3.24,2.43,6.37,4.92,9.41,7.44c1.19,0.98,2.29,1.99,3.45,2.99c1.78,1.53,3.57,3.06,5.27,4.62c1.44,1.32,2.81,2.66,4.2,4
			c1.29,1.24,2.58,2.47,3.82,3.72c1.57,1.58,3.06,3.17,4.55,4.76c0.93,1,1.88,1.99,2.78,3c1.63,1.81,3.2,3.63,4.74,5.45
			c0.64,0.76,1.29,1.52,1.91,2.28c1.67,2.03,3.27,4.06,4.81,6.1c0.39,0.52,0.78,1.03,1.17,1.55c1.67,2.24,3.27,4.47,4.8,6.71
			c0.18,0.26,0.35,0.53,0.53,0.79c1.65,2.44,3.22,4.86,4.69,7.28c0,0,0,0,0,0c1.13,1.86,2.29,3.72,3.32,5.55
			c6.2,11.12,10.64,21.81,13.68,31.51c3,9.81,4.61,18.16,6.12,25.93c1.51,7.71,4.02,14.04,6.81,17.56c2.78,3.57,5.11,4.51,5.81,3.91
			v0c0.81-0.66,0.13-2.77-0.56-6.38c-0.72-3.64-1.13-8.84-0.91-16.18c0.27-7.27,0.17-17.38-1.6-28.51
			c-1.82-11.2-5.38-23.76-11.11-36.88c-11.5-26.2-32.14-54.31-61.35-78.09c-7.29-5.87-15-11.55-23.1-16.96
			c-8.13-5.35-16.62-10.47-25.41-15.34c-7.24-3.97-14.71-7.74-22.3-11.39c-6.62-7.43-13.98-14.44-22.24-20.92
			c-23.85-18.73-53.73-26.37-82.52-22.3c-12.02-5.09-23.42-10.38-33.86-16.19c-14.82-8.17-27.66-17.46-38.24-27.55
			c-2.47-2.62-5.22-5.14-7.37-7.73c-2.28-2.55-4.35-5.22-6.29-7.92c-3.87-5.4-7.1-10.99-9.74-16.56
			c-5.27-11.15-8.27-22.12-9.59-31.93c-0.33-2.45-0.58-4.84-0.73-7.14c-0.06-1.15-0.13-2.29-0.19-3.4c-0.01-0.45,0-0.63-0.04-0.97
			l0.13-1.33c0.55-3.88,1.62-8.08,2.41-11.72c1.68-7.39,2.81-13.4,2.81-17.78c0.04-2.14-0.26-3.98-0.77-5.16
			c-0.57-1.26-1.32-1.68-1.72-1.45c-0.47,0.23-0.78,0.82-1.22,1.57c-0.48,0.93-1.12,2.18-1.95,3.78c-1.7,3.4-4.41,8.5-7.73,15.35
			c-1.64,3.5-3.49,7.2-5.18,12.24c-0.2,0.69-0.4,1.38-0.6,2.08c-0.17,0.83-0.36,1.82-0.45,2.56c-0.14,1.28-0.28,2.6-0.43,3.93
			c-0.26,2.68-0.39,5.48-0.42,8.38c-0.1,11.6,1.86,24.89,6.84,38.74c2.5,6.92,5.77,13.96,9.95,20.91c2.1,3.47,4.38,6.94,6.97,10.31
			c2.53,3.48,5.35,6.47,8.13,9.79c11.6,12.65,25.96,24.14,42.04,33.88c3.29,2.01,6.68,3.91,10.09,5.79
			c-0.83,0.46-1.68,0.87-2.5,1.35c-26.89,15.86-45.88,38.76-59.7,66.36c-1.98,3.96-4.29,7.75-7.08,12.75
			c-2.32-4.4-3.93-7.26-5.37-10.2c-12.9-26.4-29.97-49.56-52.8-68.29c-21.07-17.29-45.23-27.18-69.91-29.54
			c-0.02,0-0.04,0-0.05-0.01c0.25-1,0.51-1.99,0.77-2.98c0.07-0.28,0.14-0.56,0.22-0.84c0.76-2.82,1.55-5.62,2.43-8.37
			c2.9-8.89,6.15-17.49,10.03-25.53c3.72-8.12,8.02-15.68,12.44-22.83c8.99-14.22,18.96-26.51,29.04-36.81
			c10.12-10.27,20.29-18.6,29.76-25.21c4.78-3.22,9.24-6.28,13.56-8.75c2.19-1.31,4.29-2.57,6.3-3.77c2.02-1.2,3.85-2.31,5.6-3.28
			c7-3.96,12.31-5.9,15.63-5.38c3.66,0.62,4.84,2.76,5.61,1.99c0.37-0.35,0.45-1.2,0.11-2.65c-0.36-1.41-1.49-3.29-3.79-4.79
			c-0.6-0.31-1.22-0.72-1.96-0.98c-0.75-0.23-1.58-0.5-2.43-0.68c-0.83-0.12-1.72-0.24-2.64-0.32c-0.88-0.01-1.82-0.03-2.78,0
			c-3.79,0.2-7.86,1.14-12.16,2.51c-2.15,0.68-4.36,1.49-6.58,2.32c-2.12,0.76-4.48,1.71-6.98,2.72c-5.01,1.91-10.24,4.48-15.84,7.3
			c-11.11,5.82-23.16,13.73-35.25,24.05c-12.05,10.34-24.06,23.14-35.01,38.41c-5.4,7.68-10.65,15.9-15.26,24.81
			c-4.78,8.84-8.86,18.38-12.53,28.38c-2.44,6.83-4.54,13.93-6.3,21.24c-19.06,2.6-37.86,9.69-55.21,21.42
			c-38.47,25.99-61.59,63.31-75.48,106.47c-5.07,15.76-8.74,31.56-11.1,47.38c-1.06,1.04-2.14,2.06-3.17,3.11
			c-7.09,7.29-13.25,14.99-18.79,22.67c-10.77,15.61-18.65,31.46-23.83,46.56c-10.43,30.28-11.17,56.49-9.19,73.83
			c0.38,4.42,1.12,8.07,1.49,11.11c0.42,3.05,0.57,5.53,0.56,7.56c-0.02,4.02-0.67,6.34,0.21,6.92
			C175.3,582.23,176.49,581.78,177.84,580.24z M773.63,428.17c-0.13,3.3-0.03,6.6-0.03,9.91c-1.15,40.85-9.93,79.58-34.19,113.29
			c-20.92,29.07-47.8,49.6-84.95,52.49c-29.02,2.26-54.23-7.56-76.03-26.47c-15.72-13.63-27.99-29.99-36.29-49.03
			c-2.12-4.87-2.87-10.9-2.4-16.23c1.59-18.04,4.23-35.99,5.94-54.03c0.41-4.3,1.94-6.44,5.72-7.54c16.72-4.88,33.4-9.89,50.22-14.4
			c1.58-0.42,4.59,1.93,5.95,3.73c5.47,7.3,9.42,16.15,16.01,22.15c18.05,16.46,43.51,12.31,57.15-8.97
			c4.76-7.43,7.88-16.01,11-24.34c1.58-4.22,3.06-6.84,8.1-6.77c22.84,0.32,45.69,0.43,68.54,0.51
			C772.4,422.5,773.77,424.43,773.63,428.17z M614.24,435.1c9.51-5.47,10.81,4.83,16.05,7.65c0.74-0.5,1.52-0.97,2.24-1.53
			c6.79-5.31,9.6-4.32,11.19,3.96c1.62,8.44,2.48,9.07,10.51,6.39c10.96-3.66,18.24-11.36,22.8-21.76c1.73-3.94,3.87-6.42,8.49-4.12
			c-4.11,22.85-17.1,36.97-35.34,38.6C635.36,465.61,621.26,454.28,614.24,435.1z M536.37,355.01
			c11.29-29.75,28.66-55.06,55.37-73.24c39.2-26.69,87.23-23.61,122.73,7.86c31.42,27.85,47.44,63.82,55.07,104.22
			c0.96,5.06,1.54,10.2,2.51,16.67c-77.31-7.82-151.6,1.63-224.55,24.79c-1.81-13.18-3.13-25.3-5.22-37.27
			c-1.74-9.96-4.71-19.71-6.46-29.67C535.06,364.05,534.86,358.99,536.37,355.01z M492.95,586.17
			c-22.25,31.64-50.84,55.2-90.58,61.37c-36.2,5.62-67.85-5.58-95-28.95c-36.63-31.53-55.28-73.19-64.18-119.82
			c-0.13-0.7-0.2-1.4-0.32-2.1c-3.2-18-3.11-17.81,13.16-25.44c30.81-14.45,62.39-26.55,96.02-32.66c1.38-0.25,2.78-0.32,2.89-0.33
			c6.31,11.88,10.7,23.61,17.96,33.16c19.95,26.25,51.85,25.33,70.29-2.1c6.28-9.35,9.04-21.04,13.72-31.52
			c0.92-2.06,3.53-5.15,4.92-4.93c21.16,3.27,42.24,7.08,63.37,10.58c5.94,0.99,7.2,4.39,7.15,9.9
			C531.98,501.43,520.85,546.5,492.95,586.17z M447.89,434.02C447.89,434.02,447.89,434.02,447.89,434.02
			c1.56,16.82-9.06,34.44-23.49,42.66c-4.81,2.74-10.04,4.43-15.38,4.7c-21.27,1.07-41.11-19.56-41.47-43.79
			c2.55-0.49,5.21-1.01,8.24-1.6c2.22,5.05,4.28,9.73,6.33,14.39c16.19-6.09,16.19-6.09,16.92,15.8
			c21.47,2.77,32.05-4.12,40.28-26.11c0.39-1.04,0.74-2.08,1.15-3.03C441.68,434.19,443.39,432.21,447.89,434.02z M244.6,400.59
			c7.49-37.92,21.86-72.71,47.93-101.77c24.36-27.15,53.57-45.61,91.34-46.12c37.49-0.5,68.08,15.23,92.98,42.39
			c31.78,34.65,47.32,76.57,53.32,122.53c0.49,3.73,0.85,7.48,1.46,12.88c-49.26-10.92-98.12-18.4-148.2-12.04
			c-49.52,6.28-96.6,20.56-143.43,41.05C239.17,438.78,240.84,419.61,244.6,400.59z"/>
		<path class="st3" d="M1072.48,763.37c-1.99-23.21-6.99-45.07-13.43-65.26c-2.97-10.19-7.06-19.72-10.71-29.09
			c-4.28-9.12-8.13-18.13-12.9-26.39c-2.34-4.14-4.33-8.4-6.88-12.26c-2.44-3.91-4.85-7.77-7.22-11.57
			c-2.28-3.85-5.06-7.29-7.51-10.86c-2.57-3.48-4.87-7.07-7.55-10.29c-20.61-26.4-42.11-45.83-60.92-59.71
			c-2.37-1.71-4.68-3.38-6.91-4.99c-1.12-0.8-2.22-1.6-3.31-2.38c-1.13-0.71-2.25-1.41-3.35-2.1c-4.4-2.72-8.52-5.26-12.35-7.62
			c-7.85-4.36-14.68-7.71-20.16-10.39c-2.91-1.27-5.34-2.39-7.39-3.41c1-5.09,0.85-8.16-0.59-8.83c-1.38-0.64-3.85,0.95-7.14,4.36
			c-0.56-0.31-0.95-0.46-1.13-0.31h0c-0.18,0.13-0.13,0.6,0.19,1.32c-0.72,0.78-1.46,1.61-2.24,2.54c-1.23,1.46-2.53,3.1-3.91,4.91
			c-1.47,1.76-3.05,3.67-4.74,5.71c-3.39,4.08-6.81,8.94-11.22,13.87c-2.1,2.52-4.29,5.17-6.57,7.91c-2.27,2.75-4.91,5.4-7.44,8.27
			c-4.97,5.84-10.89,11.5-16.85,17.66c-12.38,11.89-26.55,24.27-42.48,35.95c-16.06,11.49-32.24,21.1-47.4,29.15
			c-7.71,3.74-14.94,7.61-22.03,10.51c-3.52,1.51-6.86,3.19-10.18,4.49c-3.32,1.31-6.52,2.57-9.57,3.78
			c-6.06,2.65-11.74,4.39-16.67,6.34c-2.47,0.97-4.77,1.88-6.91,2.73c-2.15,0.74-4.11,1.47-5.88,2.18
			c-7.06,2.84-10.97,5.36-10.73,7.34c0.03,0.24,0.12,0.47,0.28,0.69c0.14,0.2,0.35,0.39,0.59,0.57c0.02,0.02,0.03,0.03,0.05,0.05
			c0.54,0.39,1.33,0.74,2.35,1.05c0,0,0,0,0.01,0c1.05,0.32,2.35,0.59,3.88,0.81c0.01,0,0.02,0,0.03,0.01
			c0.7,0.1,1.46,0.19,2.26,0.27c0.09,0.01,0.16,0.02,0.26,0.03c0.89,0.09,1.84,0.17,2.85,0.23c1.98,0.13,4.18,0.21,6.59,0.24
			c2.4-0.03,4.97-0.27,7.76-0.48c5.55-0.52,11.97-0.96,18.83-2.49c3.46-0.71,7.08-1.45,10.85-2.23c3.77-0.83,7.57-2.08,11.57-3.22
			c8.06-2.15,16.3-5.46,25.03-8.88c17.2-7.39,35.44-17.25,53.07-29.87c17.49-12.81,32.54-27.07,44.93-41.1
			c5.97-7.23,11.69-14.03,16.25-21.01c2.33-3.45,4.7-6.67,6.67-9.99c1.91-3.34,3.75-6.55,5.5-9.62c3.59-6.04,6.01-12,8.24-17.12
			c1.07-2.58,2.1-4.96,2.87-7.22c0.68-2.17,1.25-4.17,1.73-6c1.67,1.26,3.54,2.56,5.68,3.91c4.96,3.38,11.08,7.56,18.3,12.49
			c3.48,2.63,7.23,5.46,11.24,8.48c1,0.75,2.02,1.52,3.05,2.29c0.99,0.84,1.99,1.69,3,2.56c2.03,1.72,4.13,3.5,6.28,5.33
			c17.09,14.71,36.54,34.5,54.96,60.51c2.4,3.17,4.43,6.7,6.72,10.11c2.17,3.5,4.68,6.85,6.68,10.61c2.1,3.69,4.23,7.44,6.39,11.24
			c2.28,3.73,3.98,7.86,6.05,11.85c4.21,7.96,7.51,16.62,11.25,25.32c3.11,8.96,6.68,18.01,9.14,27.65
			c5.44,19.1,9.51,39.61,10.77,61.17c0.95,10.8,1.05,21.58-0.66,31.46c-1.72,10.01-5.55,18.3-12.38,26.03
			c-6.75,7.74-15.91,14.56-25.98,21.36c-5.12,3.34-10.28,6.71-15.47,10.11c-5.18,3.42-10.65,6.48-16.02,9.78
			c-21.71,12.82-44.81,24.74-69.18,35.51c-48.77,21.48-102.58,38.16-159.61,49.63c-57.03,11.51-117.29,17.51-179.25,18.81
			c-61.97,1.32-122.65-1.95-181.13-7.32c-29.24-2.69-57.95-5.9-86.05-9.43c-28.08-3.48-55.29-7.35-81.28-12.8
			c-25.96-5.48-50.72-12.58-73.47-22.21c-11.43-4.71-22.16-10.34-32.47-16.27c-10.31-6.06-19.58-12.76-28.37-20.04
			c-8.49-7.55-16.69-15.28-23.57-23.87c-3.7-4.09-6.69-8.65-9.99-12.93c-1.57-2.19-2.93-4.5-4.4-6.73
			c-1.42-2.26-2.97-4.43-4.16-6.78c-2.53-4.62-5.16-9.15-7.15-13.9c-1.03-2.36-2.25-4.64-3.12-7.02c-0.88-2.38-1.76-4.75-2.63-7.11
			c-0.96-2.34-1.64-4.73-2.27-7.13c-0.67-2.39-1.34-4.76-2.01-7.12c-0.52-2.39-0.92-4.78-1.39-7.15c-0.42-2.38-1.04-4.72-1.16-7.1
			c-2.39-18.93-0.38-37.19,5.02-53.55c0.64-1.97,1.32-3.9,2.05-5.81c0.53-1.39,1.1-2.74,1.68-4.09c0.2-0.47,0.38-0.95,0.58-1.41
			c0.76-1.73,1.56-3.43,2.39-5.11c0.03-0.05,0.05-0.1,0.07-0.16c3.72-7.54,8.07-14.54,12.78-21c0.1-0.14,0.2-0.29,0.31-0.43
			c1.23-1.67,2.47-3.31,3.74-4.91c9.68-12.23,20.34-22.49,30.82-31.2c10.5-8.71,20.66-16.12,30.09-22.41
			c18.86-12.62,34.41-21.31,44.75-27.56c5.29-3.04,9.33-6.12,11.36-8.78c2.07-2.65,2.4-4.41,2.02-4.64c-0.45-0.29-1.6,0.86-4.03,2.5
			c-2.43,1.68-6.29,3.55-11.92,5.72c-11.25,4.62-27.77,11.76-48.07,23.23c-10.15,5.73-21.16,12.69-32.71,21.18
			c-11.53,8.5-23.48,18.81-34.7,31.69c-11.19,12.83-21.64,28.47-28.48,47.09c-6.94,18.51-10.09,39.97-7.99,61.91
			c0.09,2.77,0.67,5.47,1.07,8.23c0.45,2.74,0.85,5.52,1.37,8.29c0.68,2.72,1.36,5.46,2.04,8.22c0.66,2.77,1.37,5.53,2.36,8.22
			c0.92,2.71,1.84,5.44,2.77,8.18c0.93,2.74,2.2,5.35,3.3,8.05c2.14,5.45,4.92,10.63,7.66,15.91c1.29,2.69,2.94,5.17,4.47,7.75
			c1.58,2.54,3.06,5.18,4.76,7.68c3.54,4.89,6.82,10.07,10.82,14.75c7.5,9.79,16.42,18.66,25.8,27.33
			c9.61,8.36,20.18,16.28,31.28,23.09c11.18,6.75,22.86,13.11,35.15,18.44c24.5,10.87,50.81,18.8,77.9,24.9
			c27.12,6.07,55.05,10.35,83.37,14.15c28.3,3.83,57.3,7.32,86.91,10.24c59.22,5.82,120.99,9.37,184.43,8.02
			c63.39-1.33,125.44-7.69,184.27-19.96c58.81-12.22,114.42-30.05,164.81-53.06c25.18-11.54,49.04-24.31,71.42-38.05
			c5.54-3.53,11.17-6.82,16.51-10.48c5.35-3.64,10.66-7.25,15.93-10.84c10.41-7.37,21.14-15.42,30.12-26.11
			c4.44-5.34,8.43-11.34,11.31-17.92c2.92-6.55,4.66-13.32,5.66-19.88C1074.37,787.16,1073.75,774.85,1072.48,763.37z"/>
		<path class="st3" d="M661.15,192.27c30.05,5.06,58.47,14.37,80.35,37.73c5.96,6.36,13.72,11.42,25.89,12.09
			c-5.41-9.91-9.36-18.72-14.68-26.61c-18.58-27.52-44.72-46.37-73.98-60.72c-12.5-6.13-26.52-9.24-39.97-13.31
			c-1.76-0.53-5.32,0.82-6.28,2.38c-6.3,10.21-12.63,20.46-17.88,31.22c-2.86,5.86-3.61,12.75-5.68,20.59
			c7.68-0.81,13.45-1.61,19.24-1.99C639.17,192.94,650.53,190.48,661.15,192.27z"/>
		<path class="st3" d="M255.01,261.62c14.44-20.59,31.81-37.11,54.83-47.49c17.39-7.84,34.65-15.97,52.18-23.5
			c4.83-2.08,7.01-4.91,5.6-9.61c-3.42-11.41-7.13-22.74-11.24-33.91c-0.4-1.09-4.86-1.83-6.75-1.05
			c-20.09,8.28-36.86,21.51-53.12,35.66c-33.3,28.98-56.92,64.37-72.26,107.34c2.82-1.23,4.84-1.56,6.05-2.72
			C238.72,278.28,248.42,271.03,255.01,261.62z"/>
	</g>
	<path class="st4" d="M525.21,443.43c-21.13-3.5-42.21-7.32-63.37-10.58c-1.39-0.22-4,2.87-4.92,4.93
		c-4.68,10.48-7.43,22.17-13.72,31.52c-18.44,27.43-50.34,28.35-70.29,2.1c-7.26-9.55-11.65-21.28-17.96-33.16
		c-0.1,0.01-1.51,0.08-2.89,0.33c-33.63,6.1-65.21,18.21-96.02,32.66c-16.27,7.63-16.36,7.45-13.16,25.44
		c0.12,0.7,0.19,1.4,0.32,2.1c8.91,46.63,27.55,88.29,64.18,119.82c27.14,23.36,58.8,34.57,95,28.95
		c39.74-6.17,68.33-29.72,90.58-61.37c27.89-39.67,39.03-84.74,39.41-132.84C532.4,447.82,531.15,444.42,525.21,443.43z"/>
	<path class="st2" d="M240.01,459.51c46.83-20.49,93.91-34.77,143.43-41.05c50.08-6.36,98.94,1.11,148.2,12.04
		c-0.61-5.4-0.98-9.15-1.46-12.88c-6-45.96-21.54-87.88-53.32-122.53c-24.91-27.16-55.5-42.89-92.98-42.39
		c-37.76,0.51-66.98,18.96-91.34,46.12c-26.07,29.06-40.44,63.85-47.93,101.77C240.84,419.61,239.17,438.78,240.01,459.51z"/>
	<path class="st4" d="M699.82,421.98c-5.04-0.07-6.51,2.54-8.1,6.77c-3.13,8.33-6.24,16.91-11,24.34
		c-13.64,21.28-39.1,25.43-57.15,8.97c-6.58-6-10.53-14.85-16.01-22.15c-1.35-1.81-4.37-4.16-5.95-3.73
		c-16.82,4.51-33.5,9.52-50.22,14.4c-3.78,1.1-5.31,3.24-5.72,7.54c-1.71,18.04-4.35,35.99-5.94,54.03
		c-0.47,5.33,0.28,11.36,2.4,16.23c8.3,19.04,20.57,35.4,36.29,49.03c21.8,18.91,47.01,28.72,76.03,26.47
		c37.16-2.89,64.03-23.42,84.95-52.49c24.27-33.72,33.04-72.44,34.19-113.29c0-3.3-0.1-6.61,0.03-9.91
		c0.14-3.75-1.22-5.68-5.27-5.69C745.51,422.4,722.67,422.29,699.82,421.98z"/>
	<path class="st2" d="M542.28,398.04c2.09,11.98,3.41,24.09,5.22,37.27c72.95-23.16,147.23-32.62,224.55-24.79
		c-0.96-6.48-1.55-11.61-2.51-16.67c-7.63-40.4-23.65-76.37-55.07-104.22c-35.5-31.47-83.53-34.55-122.73-7.86
		c-26.7,18.18-44.08,43.49-55.37,73.24c-1.51,3.98-1.31,9.04-0.55,13.36C537.57,378.33,540.54,388.08,542.28,398.04z"/>
	<path class="st4" d="M399.03,466.18c-0.73-21.89-0.73-21.89-16.92-15.8c-2.05-4.65-4.11-9.34-6.33-14.39
		c-3.02,0.59-5.69,1.1-8.24,1.6c0.36,24.23,20.2,44.87,41.47,43.79c5.34-0.27,10.57-1.96,15.38-4.7
		c14.42-8.22,25.05-25.84,23.49-42.66c0,0,0,0,0,0c-4.5-1.81-6.2,0.17-7.43,3.02c-0.41,0.95-0.76,2-1.15,3.03
		C431.08,462.06,420.5,468.95,399.03,466.18z"/>
	<path class="st4" d="M650.19,464.29c18.25-1.63,31.23-15.75,35.34-38.6c-4.62-2.29-6.77,0.18-8.49,4.12
		c-4.56,10.4-11.84,18.09-22.8,21.76c-8.03,2.68-8.9,2.05-10.51-6.39c-1.59-8.28-4.4-9.27-11.19-3.96
		c-0.72,0.56-1.51,1.03-2.24,1.53c-5.24-2.82-6.54-13.12-16.05-7.65C621.26,454.28,635.36,465.61,650.19,464.29z"/>
</g>
</svg>
